HIERARCHY
ROOT Hips
{
	OFFSET 0.00000 0.00000 0.00000
	CHANNELS 6 Xposition Yposition Zposition Yrotation Zrotation Xrotation 
	JOINT Lumbar
	{
		OFFSET 0 0 0
		CHANNELS 3 Zrotation Xrotation Yrotation
		JOINT Neck
		{
			OFFSET 0.00 0.2701 0.00
			CHANNELS 3 Zrotation Xrotation Yrotation
			End Site
			{
				OFFSET 0.00 0.1379 0.00
			}
		}
		JOINT RightShoulder
		{
			OFFSET 0.0119 0.2289 0.1181
			CHANNELS 3 Zrotation Xrotation Yrotation
			JOINT RightElbow
			{
				OFFSET 0.00 -0.1475 0.00
				CHANNELS 2 Zrotation Yrotation
				JOINT RightWrist
				{
					OFFSET 0.00 -0.1605 0.00
					CHANNELS 2 Zrotation Xrotation
					End Site
					{
						OFFSET 0.0040 -0.1068 0.0006
					}
				}
			}
		}
		JOINT LeftShoulder
		{
			OFFSET 0.0119 0.2289 -0.1181
			CHANNELS 3 Zrotation Xrotation Yrotation
			JOINT LeftElbow
			{
				OFFSET 0.00 -0.1475 0.00
				CHANNELS 2 Zrotation Yrotation
				JOINT LeftWrist
				{
					OFFSET 0.00 -0.1605 0.00
					CHANNELS 2 Zrotation Xrotation
					End Site
					{
						OFFSET 0.0040 -0.1068 -0.0006
					}
				}
			}
		}
	}
	JOINT RightHip
	{
		OFFSET 0.0316 -0.0424 0.0458
		CHANNELS 3 Zrotation Xrotation Yrotation
		JOINT RightKnee
		{
			OFFSET 0.00 -0.2438 0.00
			CHANNELS 1 Zrotation
			JOINT RightAnkle
			{
				OFFSET 0.00 -0.2449 0.00
				CHANNELS 3 Zrotation Xrotation Yrotation
				End Site
				{
					OFFSET 0.1237 -0.0542 0.0051
				}
			}
		}
	}
	JOINT LeftHip
	{
		OFFSET 0.0316 -0.0424 -0.0458
		CHANNELS 3 Zrotation Xrotation Yrotation
		JOINT LeftKnee
		{
			OFFSET 0.00 -0.2438 0.00
			CHANNELS 1 Zrotation
			JOINT LeftAnkle
			{
				OFFSET 0.00 -0.2449 0.00
				CHANNELS 3 Zrotation Xrotation Yrotation
				End Site
				{
					OFFSET 0.1237 -0.0542 -0.0051
				}
			}
		}
	}
}
MOTION
Frames: 22
Frame Time: 0.02
-0.62413 -0.03082 0.08824 -168.73191 -83.36419 17.10121 -17.87321 7.82892 2.00662 17.18304 -18.55556 -0.83078 111.88343 5.56042 43.60565 5.3423 80.70638 -6.05369 3.95467 103.84689 -1.07685 -41.67372 12.58438 -80.5109 -1.63531 3.93891 104.50299 -15.81362 18.41519 -48.98364 -6.78321 -4.46356 -3.00322 115.94602 3.8768 16.60572 -58.06989 -6.41391 1.67553 1.46627
-0.62354 -0.03029 0.08787 -170.62067 -81.44086 15.21053 -18.93783 7.80447 1.90212 17.16335 -18.34682 -0.83078 110.53881 5.70824 42.65416 5.42768 81.75181 -6.06797 3.60694 102.2904 -1.05412 -40.40602 13.11101 -80.39974 -1.53692 4.04602 102.53636 -16.44213 16.87853 -49.07933 -6.66891 -4.26 -2.8905 113.9007 4.13358 16.81272 -58.34502 -6.40031 1.65115 1.45141
-0.6226 -0.02974 0.08748 -173.70066 -78.33099 12.15379 -21.02189 7.74804 1.75261 17.16911 -18.12262 -0.83078 108.95843 5.90785 41.08707 5.54756 82.32177 -6.20107 3.15843 100.49377 -1.00969 -38.89596 13.72894 -80.24727 -1.38931 4.14678 99.52282 -17.43619 14.57347 -49.47773 -6.48328 -3.95369 -2.71905 110.77762 4.27223 16.69882 -58.97882 -6.35558 1.67135 1.45836
-0.62185 -0.0292 0.0871 -176.18767 -75.93049 9.68146 -22.45673 7.70121 1.62747 17.16479 -17.91296 -0.83078 107.46938 6.08667 39.84523 5.66377 83.0908 -6.27775 2.76606 98.78914 -0.96571 -37.51984 14.31337 -80.12569 -1.26746 4.2507 97.12888 -18.19458 12.73243 -49.67799 -6.34079 -3.71009 -2.5831 108.29899 4.47195 16.73346 -59.38746 -6.32844 1.66954 1.45478
-0.62098 -0.02867 0.08673 -178.85774 -72.86771 7.01156 -24.61861 7.67589 1.48577 17.15387 -17.67302 -0.83078 106.04269 6.25475 38.43327 5.72859 83.95895 -6.36334 2.33261 97.15093 -0.96104 -36.03477 14.86674 -79.95542 -1.13195 4.3551 94.17306 -19.22651 10.44232 -50.11486 -6.15652 -3.40358 -2.41266 105.21516 4.65408 16.78211 -60.03885 -6.28872 1.67144 1.45195
-0.62027 -0.02811 0.08633 -181.44114 -70.86835 4.46556 -25.54142 7.59786 1.36826 17.16245 -17.49008 -0.83078 104.43118 6.45556 37.2198 5.90957 84.50014 -6.457 1.95942 95.31948 -0.87045 -34.72421 15.50512 -79.87506 -1.01356 4.45565 92.11043 -19.78749 8.88399 -50.14144 -6.04048 -3.20079 -2.29852 103.10568 4.83937 16.71532 -60.2808 -6.26689 1.67779 1.45353
-0.62008 -0.02747 0.08585 -183.51323 -72.25351 2.52609 -22.65761 7.38277 1.32402 17.22337 -17.49116 -0.83078 102.37474 6.75346 36.72258 6.3951 84.21788 -6.57053 1.78264 93.01509 -0.53577 -33.93223 16.36062 -80.06231 -0.94644 4.55595 92.90741 -18.90534 9.62664 -48.91961 -6.13656 -3.32323 -2.36114 104.09799 5.06458 16.41145 -59.26158 -6.30416 1.68319 1.46111
-0.62006 -0.02679 0.08535 -185.45756 -74.71467 0.75147 -18.52319 7.11563 1.3065 17.3019 -17.54593 -0.83078 100.13994 7.07866 36.4419 6.99797 83.62507 -6.68403 1.66905 90.52524 -0.11739 -33.32964 17.29752 -80.33954 -0.89908 4.65088 94.60908 -17.54857 11.11164 -47.28415 -6.30221 -3.55065 -2.4809 106.07565 5.29457 15.99824 -57.82797 -6.35985 1.69245 1.4728
-0.61996 -0.02613 0.08486 -187.45414 -76.57359 -1.09104 -15.05714 6.87167 1.27958 17.36991 -17.56134 -0.83078 97.98214 7.37927 36.04541 7.55193 83.19482 -6.78013 1.52223 88.11967 0.25465 -32.65573 18.19348 -80.56925 -0.84838 4.74234 95.80209 -16.44642 12.19174 -45.86765 -6.43148 -3.72045 -2.56963 107.5006 5.51914 15.62951 -56.61466 -6.40551 1.70196 1.48344
-0.61986 -0.02548 0.08438 -189.52031 -78.86915 -3.00712 -11.20463 6.6282 1.2393 17.451 -17.63959 -0.83078 95.83218 7.73466 35.69412 8.08767 82.65983 -6.95227 1.38948 85.70478 0.66195 -31.90983 19.1085 -80.82542 -0.77417 4.8584 97.37114 -15.19309 13.52863 -44.33143 -6.57837 -3.92822 -2.67759 109.33156 5.75412 15.27232 -55.27939 -6.45716 1.70451 1.49136
-0.6198 -0.02479 0.08386 -191.3906 -80.52715 -4.71092 -7.84564 6.37227 1.23403 17.5067 -17.59959 -0.83078 93.62784 7.97982 35.31704 8.68978 82.27313 -6.96646 1.24563 83.26948 1.01608 -31.36347 20.00301 -81.04849 -0.75174 4.92218 98.38496 -14.13635 14.51939 -42.94146 -6.70606 -4.08358 -2.76 110.56469 5.96933 14.86884 -54.09411 -6.50107 1.72189 1.50564
-0.61979 -0.02398 0.08322 -192.79149 -80.15582 -5.90572 -6.16385 6.09044 1.31682 17.50507 -17.22255 -0.83078 91.30828 7.93012 34.74136 9.43779 82.39172 -6.52672 1.0398 80.81605 1.1974 -31.31141 20.81183 -81.1574 -0.88948 4.84134 97.65096 -13.7454 14.35259 -42.06446 -6.76326 -4.06515 -2.75637 109.91011 6.13452 14.36689 -53.43224 -6.51953 1.77937 1.53651
-0.61982 -0.02311 0.08253 -193.98627 -79.11273 -6.87991 -5.01541 5.79887 1.43446 17.47406 -16.72425 -0.83078 88.94342 7.76519 34.14943 10.25009 82.66882 -5.93063 0.82407 78.35151 1.32353 -31.45692 21.59873 -81.23022 -1.07496 4.70833 96.3311 -13.56587 13.81873 -41.3461 -6.79911 -3.99143 -2.72558 108.62461 6.27882 13.82251 -52.93253 -6.52965 1.85148 1.5736
-0.61985 -0.02228 0.08185 -195.24314 -78.3865 -7.92515 -3.61218 5.51465 1.53781 17.44507 -16.27983 -0.83078 86.60568 7.64222 33.61651 11.03836 82.86272 -5.41731 0.6238 75.89741 1.47805 -31.51984 22.40083 -81.32031 -1.22415 4.60033 95.27992 -13.28296 13.47078 -40.54826 -6.8454 -3.94585 -2.70855 107.63023 6.42985 13.2982 -52.35153 -6.54344 1.91648 1.60766
-0.61982 -0.02142 0.0812 -196.62961 -77.64767 -9.08873 -2.21804 5.21605 1.63582 17.4642 -15.84242 -0.83078 84.23221 7.56446 32.87186 11.80846 83.09283 -4.85507 0.37942 73.41207 1.62036 -31.55834 23.18253 -81.40996 -1.43488 4.48687 94.24837 -13.0135 13.07031 -39.7668 -6.89112 -3.89141 -2.6877 106.65008 6.59393 12.76923 -51.78787 -6.55832 1.98325 1.64249
-0.61992 -0.02059 0.0805 -197.69872 -76.76237 -9.95541 -0.94815 4.94599 1.75253 17.37634 -15.36095 -0.83078 81.92696 7.36443 32.56279 12.6306 83.28902 -4.35702 0.22373 70.99393 1.77536 -31.69279 24.00193 -81.49063 -1.52944 4.37219 93.0264 -12.77365 12.67912 -38.99492 -6.93186 -3.84058 -2.66738 105.4789 6.7242 12.23799 -51.23257 -6.56875 2.05017 1.67742
-0.62038 -0.01985 0.07965 -197.93969 -75.62693 -10.05479 0.10665 4.75574 1.91505 16.99602 -14.78706 -0.83078 79.80356 6.85769 33.44943 13.57719 83.35717 -4.07935 0.31512 68.74595 1.96621 -32.03822 24.9174 -81.55632 -1.28344 4.26966 91.40714 -12.55437 12.43024 -38.20628 -6.96571 -3.81614 -2.65695 103.92039 6.78099 11.74235 -50.6566 -6.5687 2.11008 1.70857
-0.62097 -0.01915 0.07875 -197.86899 -74.36353 -9.86388 1.04851 4.59521 2.09443 16.50969 -14.17289 -0.83078 77.75453 6.2311 34.7752 14.57465 83.3867 -3.87095 0.49561 66.57053 2.17384 -32.47347 25.87359 -81.61356 -0.92036 4.16744 89.61413 -12.36151 12.19513 -37.4244 -6.99467 -3.79625 -2.64744 102.18866 6.80229 11.24187 -50.08606 -6.56441 2.17019 1.73995
-0.6215 -0.01843 0.07788 -197.94331 -73.16042 -9.80763 2.03827 4.42201 2.2643 16.07466 -13.5771 -0.83078 75.68397 5.65758 35.90717 15.5497 83.43236 -3.62742 0.63542 64.37444 2.38152 -32.87045 26.81952 -81.67359 -0.61605 4.06299 87.90673 -12.16536 11.93187 -36.64471 -7.02441 -3.77176 -2.63603 100.54141 6.82944 10.7219 -49.51801 -6.56213 2.23289 1.77299
-0.62202 -0.01768 0.077 -197.99733 -71.9269 -9.73237 3.02713 4.24426 2.44363 15.62568 -12.97656 -0.83078 73.56014 5.08644 37.0177 16.52139 83.48849 -3.39311 0.7766 62.12501 2.55433 -33.2639 27.73011 -81.73695 -0.28972 3.96456 86.15406 -11.94027 11.7469 -35.8492 -7.05939 -3.75579 -2.62978 98.85073 6.89689 10.28666 -48.93524 -6.55923 2.28537 1.79923
-0.62259 -0.01701 0.07612 -198.02077 -70.73324 -9.63023 3.99478 4.08401 2.60627 15.18066 -12.37824 -0.83078 71.56526 4.48277 38.27314 17.51466 83.51267 -3.15899 0.93509 60.00521 2.80518 -33.68316 28.72404 -81.79169 0.01893 3.85558 84.45862 -11.77805 11.40905 -35.0848 -7.08274 -3.72422 -2.61357 97.21461 6.87522 9.68096 -48.38132 -6.5567 2.35825 1.83909
-0.62328 -0.01657 0.07528 -198.05051 -69.69795 -9.52975 4.95879 3.95751 2.72333 14.77537 -11.79368 -0.83078 69.91136 3.82408 39.8571 18.52628 83.44863 -2.90092 1.12948 58.2165 3.26193 -34.15312 29.94054 -81.82607 0.25285 3.70648 82.99498 -11.7913 10.62816 -34.41749 -7.07355 -3.64554 -2.56779 95.79869 6.5903 8.54943 -47.91478 -6.55657 2.49363 1.92091
